<svg fill="none" height="75" viewBox="0 0 75 75" width="75" xmlns="http://www.w3.org/2000/svg" xmlns:xlink="http://www.w3.org/1999/xlink"><path clip-rule="evenodd" d="m26.6788 30.9633c0-.8228.7129-1.4781 1.5521-1.3776.7055.0838 1.216.7223 1.216 1.4353v10.0974c0 .713-.5105 1.3515-1.216 1.4353-.8392.0987-1.5521-.5566-1.5521-1.3776zm5.8388 3.4738c-.7908.0484-1.3905.7446-1.3905 1.5414v8.0179c0 .7949.5978 1.4912 1.3905 1.5415.8615.0521 1.5762-.6311 1.5762-1.4838v-8.1296c0-.8526-.7147-1.5377-1.5762-1.4837zm5.4824 24.6849c10.8441 0 19.8594-6.6962 21.6714-16.9295.1559-.8824-.5161-1.6959-1.411-1.6959h-17.0374c-.8243 0-1.4908.6702-1.4908 1.4949v5.6574c0 1.0946-.8541 2.0366-1.9457 2.0534-1.1065.0167-2.0088-.8768-2.0088-1.9826v-19.1653c0-1.0946.854-2.0366 1.9457-2.0534 1.0916-.0167 2.0088.8768 2.0088 1.9826v6.162c0 .8209.6609 1.4893 1.4796 1.4948l18.2387.1341c.3044.0018.5495-.2476.5495-.5529-.0056-12.1787-9.8545-20.7216-22-20.7216s-22 9.8758-22 22.0601c0 3.0288.6089 5.9162 1.7099 8.5429 1.5428 5.3503 1.5242 8.7254.1652 13.0276-.2915.9215.6981 1.7089 1.5279 1.2193 1.6189-.9569 3.4996-2.6453 5.1278-5.3372 0-.0037.0056-.0037.0093 0 3.7205 2.8892 8.3897 4.6093 13.4599 4.6093z" fill="#fff" fill-rule="evenodd"/></svg>
